<?xml version="1.0" standalone="no"?>
<!DOCTYPE svg PUBLIC "-//W3C//DTD SVG 20010904//EN"
 "http://www.w3.org/TR/2001/REC-SVG-20010904/DTD/svg10.dtd">
<svg version="1.0" xmlns="http://www.w3.org/2000/svg"
 width="225.000000pt" height="225.000000pt" viewBox="0 0 225.000000 225.000000"
 preserveAspectRatio="xMidYMid meet">

<g transform="translate(0.000000,225.000000) scale(0.100000,-0.100000)"
fill="#000000" stroke="none">
<path d="M1018 2119 c-37 -21 -17 -64 32 -71 38 -5 20 -23 -20 -21 l-35 2 23
-18 c31 -27 76 -15 80 22 3 28 0 30 -50 41 -16 4 -28 10 -28 15 0 15 32 22 46
10 22 -18 39 -6 20 14 -20 19 -43 21 -68 6z"/>
<path d="M1125 2120 c-3 -5 3 -10 14 -10 19 0 21 -6 21 -55 0 -56 13 -73 24
-32 3 12 6 34 6 50 0 20 5 27 20 27 11 0 20 4 20 9 0 19 -94 29 -105 11z"/>
<path d="M930 2095 c0 -37 23 -115 32 -109 9 6 4 78 -9 110 -7 18 -23 18 -23
-1z"/>
<path d="M1324 2098 c-3 -5 3 -12 15 -15 12 -3 21 -6 21 -7 0 0 -7 -22 -14
-48 -14 -44 -12 -58 5 -58 4 0 13 23 20 50 10 39 17 50 31 48 9 -2 18 1 18 7
2 14 -88 36 -96 23z"/>
<path d="M815 2078 c-16 -6 -31 -12 -32 -13 -2 -1 5 -26 15 -55 21 -60 45 -80
40 -34 -2 23 1 30 18 32 15 2 23 -3 27 -17 3 -12 10 -21 16 -21 14 0 15 37 1
45 -5 3 -10 16 -10 29 0 24 -17 47 -34 45 -6 0 -24 -5 -41 -11z m53 -30 c-2
-6 -14 -15 -26 -19 -18 -7 -22 -5 -22 11 0 15 7 20 26 20 15 0 24 -5 22 -12z"/>
<path d="M1445 2015 c-29 -65 -29 -65 -11 -65 8 0 18 9 21 20 7 21 22 25 44
11 10 -6 11 -13 2 -29 -14 -27 -14 -32 2 -32 15 0 59 98 50 113 -3 5 -13 0
-22 -12 -22 -29 -55 -19 -47 15 12 48 -15 33 -39 -21z"/>
<path d="M715 2040 c-3 -5 -1 -18 5 -29 8 -16 6 -21 -12 -27 -15 -4 -25 -1
-34 11 -7 9 -17 14 -23 11 -15 -10 39 -116 55 -109 10 4 10 10 1 30 -9 19 -8
26 4 34 22 14 27 11 43 -18 12 -23 16 -25 21 -12 4 10 -5 39 -19 68 -28 54
-31 57 -41 41z"/>
<path d="M1577 1955 c-15 -25 -27 -49 -27 -54 0 -12 78 -52 84 -43 3 5 -8 16
-24 25 -18 11 -27 23 -24 32 5 13 10 13 34 0 18 -9 31 -11 35 -5 3 5 -5 15
-19 22 -14 6 -26 14 -26 18 0 16 15 18 41 5 41 -22 45 0 3 24 -19 12 -38 21
-42 21 -4 0 -19 -20 -35 -45z"/>
<path d="M959 1955 c-332 -66 -601 -338 -665 -672 -88 -462 231 -917 696 -992
535 -87 1011 346 977 888 -25 385 -311 709 -687 777 -93 17 -234 16 -321 -1z
m286 -14 c11 -4 -45 -8 -125 -8 -86 -1 -137 2 -125 7 25 11 223 11 250 1z
m155 -36 c101 -35 216 -104 148 -88 -20 5 -19 2 10 -27 17 -18 32 -40 31 -49
0 -11 -3 -10 -11 7 -7 13 -20 22 -35 22 -12 0 -32 9 -43 20 -12 12 -25 18 -30
15 -4 -3 -15 2 -23 10 -9 8 -20 15 -25 15 -5 0 -15 7 -23 16 -10 13 -10 17 0
24 19 11 -23 36 -76 45 -24 4 -45 10 -48 15 -6 10 68 -5 125 -25z m-415 5 c4
-6 -6 -10 -22 -9 -25 0 -26 1 -8 9 11 5 21 9 22 9 1 1 5 -3 8 -9z m-135 -39
c0 -5 -7 -14 -15 -21 -28 -23 -20 -28 45 -30 41 -1 123 6 157 14 24 6 31 12
27 24 -4 13 -2 12 10 -3 39 -49 46 -54 61 -49 8 4 22 1 29 -6 11 -8 20 -8 34
-1 10 5 43 8 73 6 57 -5 92 1 85 14 -6 9 80 -12 90 -22 4 -4 2 -7 -6 -7 -9 0
-10 -3 -1 -14 12 -14 5 -46 -13 -58 -8 -5 -7 -13 2 -28 6 -11 12 -34 12 -52
l-1 -33 -25 29 c-20 22 -24 36 -20 65 3 20 2 31 0 24 -3 -7 -12 -9 -20 -6 -11
4 -15 0 -12 -12 2 -13 -5 -18 -32 -21 -21 -3 -42 -13 -52 -26 -20 -27 -16 -37
16 -34 26 3 47 -27 52 -71 3 -27 -13 -31 -18 -5 -3 12 -9 5 -23 -23 -11 -22
-30 -45 -43 -51 -13 -6 -30 -21 -38 -33 -8 -11 -22 -21 -30 -21 -11 0 -14 21
-14 110 l0 110 -55 0 -55 0 0 -110 0 -110 -115 0 -115 0 0 -50 0 -49 118 -3
117 -3 0 -59 c0 -59 0 -59 -35 -71 -19 -6 -35 -16 -35 -21 0 -14 -15 -34 -26
-34 -5 0 -9 7 -9 15 0 8 5 15 12 15 9 0 9 3 0 12 -8 8 -15 8 -27 -2 -20 -16
-19 -27 5 -57 31 -39 25 -74 -15 -100 -19 -12 -35 -18 -35 -12 0 5 -12 23 -27
40 -26 29 -28 29 -35 9 -8 -23 -2 -47 20 -73 18 -21 43 -87 33 -87 -4 0 -11 3
-17 8 -5 4 5 -7 22 -24 17 -17 38 -34 45 -37 10 -4 9 -6 -3 -6 -10 -1 -18 -8
-18 -16 0 -17 25 -19 292 -19 156 -1 196 6 118 19 -44 7 -55 25 -16 25 14 0
28 5 32 11 8 14 91 3 121 -17 22 -14 46 -11 71 9 11 8 11 12 0 19 -9 7 -7 8 7
6 31 -5 23 -32 -12 -43 -34 -10 -44 -32 -18 -41 8 -4 15 -10 15 -15 0 -15 -32
-10 -53 8 -18 17 -19 17 -32 0 -14 -20 -31 -22 -39 -4 -3 6 -3 -19 0 -58 8
-83 16 -102 13 -27 -3 56 5 77 16 43 3 -12 11 -21 16 -21 5 0 9 -10 9 -22 0
-13 14 -36 30 -52 41 -40 38 -71 -10 -126 l-40 -45 -2 45 c-1 44 -1 44 -5 7
l-4 -38 -145 3 c-79 2 -144 0 -144 -3 0 -8 -62 -21 -68 -14 -3 2 10 12 29 20
19 9 23 13 9 9 -14 -4 -91 -9 -172 -11 -113 -3 -148 -1 -148 8 0 18 30 249 36
277 3 17 11 22 36 22 l31 0 -20 23 c-11 12 -28 36 -37 54 -12 23 -21 31 -36
28 -12 -2 -18 0 -15 6 4 5 11 7 16 4 17 -11 9 12 -11 30 -11 10 -20 22 -20 27
0 16 24 7 53 -19 l28 -28 -20 48 c-11 26 -20 62 -19 80 3 67 -1 92 -14 79 -20
-20 -28 -14 -28 19 0 20 -4 28 -12 23 -6 -4 -8 -3 -5 4 11 17 -4 42 -24 42
-11 0 -42 -15 -69 -32 -54 -36 -78 -84 -60 -119 15 -27 12 -49 -6 -49 -13 0
-15 7 -10 31 5 27 4 30 -9 19 -9 -7 -18 -10 -21 -7 -4 3 -8 45 -11 94 -3 48
-9 93 -13 98 -4 6 -10 27 -14 48 -4 21 -13 37 -20 37 -8 0 -19 7 -26 15 -17
21 -28 11 -22 -20 6 -33 -18 -60 -74 -81 -43 -16 -60 -44 -28 -44 20 0 14 -32
-21 -105 -17 -37 -23 -63 -20 -95 l4 -45 -9 40 c-14 61 -11 222 4 295 17 81
69 217 96 250 16 20 19 21 13 5 -6 -18 -5 -18 10 -6 9 7 14 17 11 22 -3 5 0 9
6 9 6 0 10 6 9 13 -8 46 153 217 205 217 9 0 15 4 11 10 -6 9 58 46 105 61 35
10 70 11 70 0z m105 -18 c-11 -2 -32 -8 -47 -13 -16 -5 -28 -5 -28 0 0 9 31
17 70 17 19 1 20 0 5 -4z m260 -33 c-3 -5 -12 -7 -20 -3 -21 7 -19 13 6 13 11
0 18 -4 14 -10z m521 -182 c-1 -7 -6 -19 -10 -27 -6 -9 -5 -12 2 -7 18 11 20
-18 3 -38 -13 -16 -13 -18 -1 -11 13 8 13 7 1 -8 -7 -9 -10 -17 -5 -17 5 -1
-3 -8 -18 -16 -16 -8 -28 -22 -28 -31 0 -9 -11 -31 -25 -48 -28 -38 -24 -45
22 -45 27 0 34 -4 31 -17 -2 -13 -15 -18 -53 -20 -28 -1 -63 -3 -79 -4 -31 -2
-49 15 -93 86 -19 30 -20 37 -8 41 8 4 13 10 10 14 -3 5 -1 11 5 15 5 3 10 0
10 -7 0 -7 9 -19 20 -26 20 -12 20 -12 5 11 -14 22 -14 28 10 78 l25 54 0 -36
c0 -20 6 -48 13 -63 l14 -26 11 39 c8 23 30 55 57 80 43 39 85 54 81 29z
m-258 -113 c-1 -14 -6 -25 -11 -25 -4 0 -6 -4 -2 -9 3 -5 0 -13 -7 -18 -18
-11 -39 -13 -33 -3 3 5 1 10 -3 12 -4 1 -2 14 6 28 l13 25 -4 -27 c-2 -16 0
-28 4 -28 8 0 10 9 9 35 0 5 23 34 27 35 2 0 2 -11 1 -25z m32 4 c0 -5 -4 -9
-10 -9 -5 0 -10 7 -10 16 0 8 5 12 10 9 6 -3 10 -10 10 -16z m-121 -33 c-12
-6 -18 -15 -14 -24 5 -13 3 -13 -11 -1 -16 13 -16 12 -5 -9 12 -22 8 -42 -8
-42 -12 0 -21 52 -14 78 4 17 9 19 29 12 13 -5 23 -6 23 -2 -3 19 2 25 11 12
7 -11 4 -17 -11 -24z m-43 -291 c2 -11 1 -27 -3 -35 -12 -27 -12 -58 0 -57 36
1 57 -4 57 -14 0 -5 -4 -7 -10 -4 -5 3 -10 4 -10 0 0 -3 12 -10 26 -15 21 -8
25 -15 21 -36 -2 -14 1 -31 8 -37 39 -40 18 -125 -28 -108 -12 5 -21 15 -20
23 5 23 -37 19 -47 -5 -9 -20 -9 -19 -7 8 2 24 8 32 35 40 17 5 32 13 32 18 0
4 5 5 10 2 6 -3 10 -1 10 4 0 13 -2 13 -35 1 -34 -13 -50 -4 -33 18 11 13 10
15 -4 9 -15 -5 -18 -1 -18 24 0 17 -4 28 -9 25 -12 -8 -34 21 -26 34 4 6 2 17
-4 24 -7 8 -9 31 -5 60 6 43 9 47 32 44 16 -2 26 -10 28 -23z m-589 -137 c-3
-8 -6 -5 -6 6 -1 11 2 17 5 13 3 -3 4 -12 1 -19z m529 -20 c-9 -5 -14 -14 -10
-20 3 -5 -8 -23 -25 -39 -41 -37 -53 -38 -20 -1 14 15 31 39 38 54 8 15 18 25
24 21 5 -3 2 -10 -7 -15z m-216 -164 c0 -67 -2 -75 -17 -71 -10 3 -29 8 -43
11 -16 3 -29 16 -36 33 -13 34 -8 54 12 46 8 -3 14 0 14 6 0 6 6 11 13 11 8 0
22 9 32 20 10 11 20 20 22 20 1 0 3 -34 3 -76z m-743 34 c-3 -8 -6 -5 -6 6 -1
11 2 17 5 13 3 -3 4 -12 1 -19z m917 -46 c-4 -18 -10 -32 -14 -32 -7 0 -5 24
6 59 8 26 14 4 8 -27z m-44 14 c0 -3 -4 -8 -10 -11 -5 -3 -10 -1 -10 4 0 6 5
11 10 11 6 0 10 -2 10 -4z m-359 -28 c11 -21 11 -22 -4 -9 -10 7 -17 17 -17
22 0 15 9 10 21 -13z m-448 -75 c8 -29 13 -53 11 -53 -11 0 -44 87 -43 115 0
25 2 27 8 10 5 -11 15 -44 24 -72z m884 52 c0 -11 -11 -15 -36 -15 l-36 1 30
14 c39 18 42 18 42 0z m344 -12 c13 -15 12 -15 -8 -4 -24 12 -29 21 -14 21 5
0 15 -7 22 -17z m49 -12 c0 -17 -18 -21 -24 -6 -3 9 0 15 9 15 8 0 15 -4 15
-9z m4 -270 c3 -4 -3 -16 -14 -26 -19 -17 -19 -17 -7 9 14 29 14 29 21 17z
m-60 -65 c-31 -23 -80 -50 -69 -38 16 18 80 59 84 55 3 -2 -4 -10 -15 -17z
m-184 -16 c-20 -13 -80 -13 -80 0 0 6 21 10 48 10 34 0 43 -3 32 -10z m-15
-30 c-3 -5 -13 -10 -21 -10 -8 0 -12 5 -9 10 3 6 13 10 21 10 8 0 12 -4 9 -10z"/>
<path d="M519 1664 c-11 -12 -14 -26 -9 -39 7 -19 7 -19 19 3 7 13 11 30 9 39
-3 13 -5 12 -19 -3z"/>
<path d="M578 1633 c-9 -2 -21 -17 -28 -33 -7 -16 -18 -35 -26 -41 -8 -6 -14
-19 -14 -28 0 -12 6 -10 24 9 13 14 23 27 23 30 -3 16 17 50 29 50 8 0 14 5
14 10 0 6 -1 9 -2 9 -2 -1 -10 -3 -20 -6z"/>
<path d="M436 1424 c-11 -28 -7 -66 7 -61 6 2 10 11 8 18 -2 8 -4 24 -4 37 1
26 -3 28 -11 6z"/>
<path d="M351 1344 c0 -11 3 -14 6 -6 3 7 2 16 -1 19 -3 4 -6 -2 -5 -13z"/>
<path d="M341 1294 c0 -11 3 -14 6 -6 3 7 2 16 -1 19 -3 4 -6 -2 -5 -13z"/>
<path d="M902 660 c0 -19 2 -27 5 -17 2 9 2 25 0 35 -3 9 -5 1 -5 -18z"/>
<path d="M932 660 c0 -19 2 -27 5 -17 2 9 2 25 0 35 -3 9 -5 1 -5 -18z"/>
<path d="M957 675 c-9 -22 3 -46 22 -43 10 2 16 13 16 28 0 28 -29 40 -38 15z
m33 -15 c0 -11 -4 -20 -9 -20 -14 0 -23 18 -16 30 10 17 25 11 25 -10z"/>
<path d="M1063 660 l12 -31 7 28 c4 15 5 29 3 32 -3 2 -5 -1 -5 -9 0 -10 -3
-10 -14 0 -13 10 -13 7 -3 -20z"/>
<path d="M1130 660 c0 -25 4 -31 18 -28 23 5 23 52 -1 56 -13 3 -17 -3 -17
-28z m27 0 c1 -11 -2 -20 -8 -20 -5 0 -9 9 -9 20 0 11 4 20 8 20 4 0 8 -9 9
-20z"/>
<path d="M1182 660 c0 -19 2 -27 5 -17 2 9 2 25 0 35 -3 9 -5 1 -5 -18z"/>
<path d="M1210 660 c0 -25 4 -31 18 -28 23 5 23 52 -1 56 -13 3 -17 -3 -17
-28z m27 0 c1 -11 -2 -20 -8 -20 -5 0 -9 9 -9 20 0 11 4 20 8 20 4 0 8 -9 9
-20z"/>
<path d="M1261 663 c-1 -28 2 -33 22 -32 15 1 17 3 5 6 -9 2 -19 16 -21 31 -4
24 -4 24 -6 -5z"/>
<path d="M1310 660 c0 -25 4 -30 23 -29 16 1 18 2 5 6 -21 5 -24 23 -5 23 9 0
8 3 -2 9 -11 7 -11 9 0 14 10 4 9 6 -3 6 -13 1 -18 -7 -18 -29z"/>
<path d="M1028 633 c7 -3 16 -2 19 1 4 3 -2 6 -13 5 -11 0 -14 -3 -6 -6z"/>
<path d="M1432 600 c0 -19 2 -27 5 -17 2 9 2 25 0 35 -3 9 -5 1 -5 -18z"/>
<path d="M1321 1095 c-1 -18 31 -51 36 -37 8 21 21 13 15 -10 -5 -21 -4 -22
12 -8 17 13 17 15 -5 33 -12 10 -28 16 -35 13 -7 -3 -15 0 -18 7 -2 7 -5 8 -5
2z"/>
<path d="M547 1942 c-24 -26 -21 -59 8 -87 29 -30 45 -31 75 -7 15 12 21 26
18 42 l-4 25 -12 -27 c-15 -35 -46 -36 -68 -3 -13 20 -14 28 -4 40 6 8 19 13
28 12 10 -1 18 3 20 8 5 19 -44 16 -61 -3z"/>
<path d="M1753 1854 c-3 -9 1 -31 10 -50 9 -18 13 -35 9 -38 -13 -8 -33 9 -36
29 -4 26 -26 31 -26 6 0 -29 36 -63 63 -59 28 4 34 38 12 71 -11 17 -13 27 -6
32 16 9 31 -3 31 -25 0 -25 18 -36 26 -16 3 9 -1 27 -10 41 -19 29 -63 34 -73
9z"/>
<path d="M387 1802 c-21 -23 -22 -46 -3 -61 11 -10 21 -9 45 3 37 20 41 20 41
1 0 -9 -12 -20 -27 -26 -19 -7 -23 -13 -15 -21 8 -8 18 -7 36 5 33 22 43 55
22 75 -15 15 -19 15 -51 -2 -19 -11 -38 -16 -41 -13 -9 9 15 37 32 37 8 0 14
5 14 10 0 17 -36 11 -53 -8z"/>
<path d="M1833 1738 c-29 -11 -50 -25 -47 -30 3 -5 12 -7 20 -4 18 7 43 -30
37 -55 -10 -36 12 -19 45 36 47 79 37 88 -55 53z m39 -30 c-6 -6 -15 -8 -19
-4 -4 4 -1 11 7 16 19 12 27 3 12 -12z"/>
<path d="M314 1718 c-4 -7 3 -18 16 -27 60 -40 66 -48 49 -66 -14 -14 -19 -13
-53 10 -39 26 -56 31 -56 15 0 -13 71 -60 91 -60 21 0 49 32 49 56 0 25 -86
89 -96 72z"/>
<path d="M1907 1653 c-45 -56 -49 -78 -9 -69 80 20 102 28 102 36 0 13 -22 13
-56 0 -39 -15 -42 -4 -9 30 18 19 25 34 19 40 -6 6 -23 -7 -47 -37z"/>
<path d="M224 1565 c-19 -28 -16 -54 8 -69 14 -8 23 -5 48 19 16 15 32 26 36
23 10 -11 -7 -48 -22 -48 -8 0 -14 -5 -14 -11 0 -6 10 -9 22 -7 28 4 47 51 32
75 -17 27 -32 26 -57 -1 -14 -14 -29 -26 -36 -26 -19 0 -12 29 9 40 23 13 26
30 5 30 -8 0 -22 -11 -31 -25z"/>
<path d="M1956 1544 c-32 -17 -45 -29 -38 -36 11 -11 112 36 112 52 0 16 -21
11 -74 -16z"/>
<path d="M1991 1487 c-33 -17 -45 -39 -37 -71 7 -29 47 -50 77 -41 51 17 67
81 27 109 -27 19 -36 19 -67 3z m67 -44 c2 -16 -4 -26 -22 -34 -31 -14 -56 -6
-56 19 0 45 72 58 78 15z"/>
<path d="M171 1439 c-19 -56 -15 -64 39 -78 27 -7 53 -12 57 -11 12 2 34 71
26 83 -4 6 -14 -5 -22 -26 -11 -25 -20 -34 -29 -28 -10 6 -10 14 -3 34 9 22 8
27 -4 27 -8 0 -15 -6 -15 -12 0 -21 -17 -41 -28 -34 -8 5 -8 15 -1 33 6 16 6
30 1 35 -6 6 -14 -3 -21 -23z"/>
<path d="M2033 1338 c-46 -10 -62 -39 -18 -30 22 4 25 1 25 -22 0 -19 -5 -26
-20 -26 -12 0 -20 -7 -20 -16 0 -12 5 -15 23 -9 12 4 34 7 49 7 38 -1 51 20
43 68 -7 44 -10 45 -82 28z m62 -39 c8 -25 1 -34 -20 -26 -19 8 -20 47 -1 47
8 0 18 -9 21 -21z"/>
<path d="M140 1314 c0 -7 16 -16 38 -19 20 -4 43 -8 50 -10 17 -6 15 -25 -3
-25 -8 0 -15 -7 -15 -15 0 -18 21 -20 38 -3 16 16 15 57 0 63 -7 3 -34 9 -60
14 -38 7 -48 6 -48 -5z"/>
<path d="M145 1143 c-18 -18 -19 -35 -3 -51 28 -28 75 -1 63 36 -8 26 -41 34
-60 15z"/>
<path d="M2040 1140 c-16 -16 -18 -25 -10 -40 12 -22 40 -26 58 -8 18 18 14
46 -8 58 -15 8 -24 6 -40 -10z"/>
<path d="M176 1021 c-48 -6 -79 -31 -38 -31 54 0 112 14 112 26 0 8 -6 13 -12
12 -7 0 -35 -4 -62 -7z"/>
<path d="M1998 974 c-26 -55 39 -89 67 -35 8 17 20 31 25 31 15 0 12 -32 -6
-51 -19 -21 -4 -33 20 -16 21 15 25 75 5 88 -25 16 -39 9 -56 -26 -16 -34 -33
-41 -40 -18 -2 6 3 18 12 26 19 20 19 27 0 27 -9 0 -21 -12 -27 -26z"/>
<path d="M173 958 c-57 -12 -57 -33 -1 -24 l43 7 -33 -33 c-38 -40 -42 -63 -9
-55 12 3 39 9 60 12 23 5 37 13 37 22 0 10 -7 12 -20 9 -66 -19 -66 -19 -27
19 58 55 47 65 -50 43z"/>
<path d="M1971 859 c-6 -18 -11 -37 -11 -44 0 -10 108 -51 114 -43 5 6 26 71
26 79 0 21 -19 6 -29 -22 -6 -18 -16 -29 -23 -26 -14 5 -14 9 -3 45 9 31 -13
29 -25 -3 -15 -39 -33 -31 -26 10 9 44 -8 46 -23 4z"/>
<path d="M264 842 c6 -17 0 -22 -31 -32 -21 -7 -42 -16 -47 -21 -20 -18 4 -21
48 -6 42 14 46 14 55 -1 16 -29 22 -7 8 33 -14 40 -45 66 -33 27z"/>
<path d="M1940 766 c0 -18 100 -60 113 -47 7 7 -11 19 -48 35 -67 30 -65 30
-65 12z"/>
<path d="M258 724 l-48 -24 22 -45 c14 -28 25 -42 31 -36 6 6 4 19 -7 35 -20
31 -20 32 -1 40 10 4 20 -3 27 -19 13 -28 33 -34 25 -7 -2 9 -6 23 -8 31 -8
28 19 20 31 -9 8 -19 17 -27 22 -22 11 11 -21 82 -36 82 -6 -1 -32 -12 -58
-26z"/>
<path d="M2010 684 c0 -6 -6 -18 -13 -28 -13 -17 -15 -17 -56 4 -29 14 -47 18
-53 12 -7 -7 9 -20 49 -41 l60 -30 17 36 c12 25 14 39 7 46 -7 7 -11 7 -11 1z"/>
<path d="M323 618 c-24 -16 -43 -36 -43 -45 0 -14 3 -14 25 1 23 15 25 15 36
-6 10 -18 8 -24 -7 -35 -12 -9 -15 -16 -8 -23 7 -7 17 -4 30 7 11 10 29 23 40
29 10 6 20 18 22 27 3 15 -36 78 -47 76 -3 0 -25 -14 -48 -31z m65 -31 c2 -10
-3 -17 -12 -17 -9 0 -16 2 -16 4 0 2 -3 12 -6 21 -5 13 -2 16 12 13 10 -2 20
-11 22 -21z"/>
<path d="M1858 617 c-9 -7 -23 -23 -31 -37 -16 -25 -16 -26 34 -60 l50 -34 24
30 c33 39 28 60 -21 89 -33 20 -44 22 -56 12z m32 -25 c0 -5 -6 -16 -13 -27
-16 -20 -31 -7 -21 19 6 16 34 23 34 8z m40 -34 c0 -7 -5 -20 -10 -28 -12 -20
-33 0 -24 23 7 20 34 23 34 5z"/>
<path d="M401 506 c-24 -24 -39 -46 -33 -50 5 -3 20 6 32 19 34 36 40 31 24
-21 -7 -26 -11 -50 -8 -55 3 -5 28 10 55 33 33 28 46 45 39 52 -7 7 -20 1 -40
-19 -34 -33 -35 -32 -16 21 13 38 12 64 -3 64 -4 0 -26 -20 -50 -44z"/>
<path d="M1781 526 c-11 -13 -9 -22 9 -51 25 -40 20 -43 -25 -15 -27 16 -34
18 -43 7 -9 -10 -1 -23 33 -57 50 -49 75 -47 29 2 l-29 31 37 -22 c50 -30 65
-19 36 27 -22 36 -6 36 21 -1 10 -14 16 -16 24 -8 8 8 -1 24 -34 57 -40 39
-47 43 -58 30z"/>
<path d="M513 407 c-50 -31 -65 -55 -29 -49 23 4 46 -16 46 -39 0 -38 19 -18
38 40 27 80 15 90 -55 48z m33 -32 c-3 -9 -11 -13 -16 -10 -8 5 -7 11 1 21 14
18 24 11 15 -11z"/>
<path d="M1646 406 l-29 -24 33 -46 c19 -25 38 -46 44 -46 16 1 71 48 64 55
-3 4 -18 -1 -33 -11 -19 -12 -29 -14 -37 -6 -8 8 -3 18 18 36 18 15 23 25 15
26 -8 0 -23 -8 -33 -17 -14 -12 -21 -14 -30 -5 -8 8 -3 17 18 36 38 33 10 34
-30 2z"/>
<path d="M600 392 c0 -4 5 -13 11 -19 9 -9 6 -20 -10 -46 -11 -19 -21 -39 -21
-46 0 -23 20 -10 42 29 19 32 27 38 45 33 33 -8 28 3 -14 32 -39 26 -53 31
-53 17z"/>
<path d="M1553 348 c-25 -12 -35 -31 -27 -52 8 -21 29 -26 64 -16 27 8 31 6
28 -8 -2 -11 -15 -18 -36 -20 -39 -4 -33 -22 7 -22 37 0 69 35 54 58 -8 12
-23 16 -52 15 -30 -1 -41 2 -41 13 0 9 11 14 30 14 32 0 40 14 14 24 -9 3 -16
6 -17 5 -1 0 -12 -5 -24 -11z"/>
<path d="M677 285 c-17 -34 -23 -57 -16 -61 13 -8 11 -9 42 52 24 47 26 64 7
64 -3 0 -18 -25 -33 -55z"/>
<path d="M762 299 c-49 -18 -54 -101 -7 -119 30 -11 70 1 79 25 24 63 -15 115
-72 94z m53 -39 c9 -29 -12 -62 -38 -58 -42 6 -30 78 14 78 10 0 20 -9 24 -20z"/>
<path d="M1428 289 c-21 -12 -24 -44 -6 -55 7 -4 27 -7 44 -6 34 3 53 -11 32
-24 -7 -4 -26 -7 -43 -6 -28 3 -29 2 -13 -15 31 -31 100 10 85 51 -4 11 -19
16 -47 16 -30 0 -40 4 -40 16 0 11 8 14 27 12 15 -2 28 2 30 10 6 15 -44 16
-69 1z"/>
<path d="M874 243 c-3 -15 -10 -43 -14 -60 -6 -25 -5 -33 5 -33 7 0 17 17 22
38 l9 37 15 -45 c20 -59 39 -57 56 5 16 63 16 65 -2 65 -8 0 -15 -9 -15 -19 0
-11 -3 -27 -7 -37 -5 -12 -10 -6 -22 26 -19 52 -38 62 -47 23z"/>
<path d="M1338 257 c-21 -16 -31 -127 -11 -127 7 0 13 6 13 14 0 20 38 30 55
16 34 -28 32 -1 -3 52 -33 50 -41 56 -54 45z m24 -69 c-9 -9 -12 -7 -12 12 0
19 3 21 12 12 9 -9 9 -15 0 -24z"/>
<path d="M1015 184 c-29 -67 -29 -64 -10 -64 8 0 15 5 15 10 0 16 47 12 54 -5
10 -27 29 -17 22 13 -30 123 -43 131 -81 46z m41 -21 c-11 -11 -19 6 -11 24 8
17 8 17 12 0 3 -10 2 -21 -1 -24z"/>
<path d="M1130 221 c0 -10 3 -39 6 -65 l7 -47 41 3 c49 4 55 22 9 26 -32 3
-33 4 -33 53 0 37 -4 49 -15 49 -8 0 -15 -8 -15 -19z"/>
</g>
</svg>
